<svg xmlns="http://www.w3.org/2000/svg" viewBox="0 0 24 24" fill="none" shape-rendering="auto" aria-hidden="true" width="512" height="512"><metadata xmlns:rdf="http://www.w3.org/1999/02/22-rdf-syntax-ns#" xmlns:xsi="http://www.w3.org/2001/XMLSchema-instance" xmlns:dc="http://purl.org/dc/elements/1.1/" xmlns:dcterms="http://purl.org/dc/terms/"><rdf:RDF><rdf:Description><dc:title>Bootstrap Icons</dc:title><dc:creator>The Bootstrap Authors</dc:creator><dc:source xsi:type="dcterms:URI">https://github.com/twbs/icons</dc:source><dcterms:license xsi:type="dcterms:URI">https://github.com/twbs/icons/blob/main/LICENSE</dcterms:license><dc:rights>“Bootstrap Icons” (https://github.com/twbs/icons) by “The Bootstrap Authors”, licensed under “MIT” (https://github.com/twbs/icons/blob/main/LICENSE)</dc:rights></rdf:Description></rdf:RDF></metadata><defs><linearGradient id="background-color-286ed3b1"><stop offset="0%" stop-color="#fc5c7d"/><stop offset="100%" stop-color="#6a82fb"/></linearGradient><g id="icon-box-286ed3b1"><path d="M8.186 1.113a.5.5 0 0 0-.372 0L1.846 3.5 8 5.961 14.154 3.5zM15 4.239l-6.5 2.6v7.922l6.5-2.6zM7.5 14.762V6.838L1 4.239v7.923zM7.443.184a1.5 1.5 0 0 1 1.114 0l7.129 2.852A.5.5 0 0 1 16 3.5v8.662a1 1 0 0 1-.629.928l-7.185 2.874a.5.5 0 0 1-.372 0L.63 13.09a1 1 0 0 1-.63-.928V3.5a.5.5 0 0 1 .314-.464z" fill="#ffffff"/></g><clipPath id="clip-286ed3b1"><rect width="24" height="24" rx="4.8" ry="4.8"/></clipPath></defs><g clip-path="url(#clip-286ed3b1)"><rect width="24" height="24" fill="url(#background-color-286ed3b1)"/><g transform="rotate(12, 12, 12)"><g transform="translate(4 4)" style="mix-blend-mode:overlay"><use href="#icon-box-286ed3b1"/></g><g transform="translate(4 4)" opacity=".4"><use href="#icon-box-286ed3b1"/></g></g></g></svg>